# Apple ModelIO OBJ File: ship2
mtllib ship2.mtl
g 
v -1.2 -0.2 1
v 0 -0.7 3
v -0.3 -1e-06 5
v -1 1 -1
v -1.2 0.2 1
v -1 1 1
v -1 -1 -1
v 0.6 -0.6 -1.4
v 1 -1 -1
v -1 -1 1
v 1 -1 1
v 1 1 1
v 0.3 -1e-06 5
v 1.2 -0.2 1
v 1.2 0.2 1
v -1.2 0.2 -1
v -0.6 0.6 -1.4
v -0.72 0.12 -1.4
v -1.2 -0.2 -1
v 4.2 0.06 -1
v 1.2 0.2 -1
v 1.2 -0.2 -1
v 0.72 -0.12 -1.4
v 1 1 -1
v -4.2 -0.06 1
v -4.2 0.06 -1
v -4.2 -0.18 -1
v -4.2 0.18 -1
v -4.2 -0.06 -1
v -4.2 0.06 1
v 4.2 0.06 1
v 4.2 0.18 -1
v 4.2 -0.06 1
v 4.2 -0.06 -1
v 4.2 -0.18 1
v 4.35 0.18 3
v 4.2 0.18 1
v 4.2 -0.18 -1
v 4.5 0.18 -1
v 4.5 -0.18 1
v 4.5 -0.18 -1
v -4.5 0.18 1
v -4.2 0.18 1
v -4.2 -0.18 1
v -4.5 -0.18 -1
v -4.5 -0.18 1
v -4.35 0.18 3
v -4.5 0.18 -1
v 4.35 -0.18 3
v 4.5 0.18 1
v -4.35 -0.18 3
v 0.72 0.12 -1.4
v -0.6 -0.6 -1.4
v 0.6 0.6 -1.4
v -0.72 -0.12 -1.4
vn -0.6149 -0.7686 0.1768
vn -0.9701 0.2425 -0
vn -0 -0.7071 -0.7071
vn -0 -1 -0
vn -0 1 -0
vn -0 0.9701 0.2425
vn 0.9756 -0 0.2195
vn 0.9454 0.2363 0.2245
vn 0.8602 -0.2151 0.4624
vn -0 -0.9889 0.1483
vn -0.6172 0.1543 -0.7715
vn -0.9701 -0.2425 -0
vn 0.0466 0.9989 -0
vn 0.6172 -0.1543 -0.7715
vn 0.9701 0.2425 -0
vn 0.9701 -0.2425 -0
vn -0 -0 1
vn -0.9756 -0 0.2195
vn -0 -0.9439 0.3304
vn -0.9454 0.2363 0.2245
vn -0 -0 -1
vn -0.0466 -0.9989 -0
vn -0.0466 0.9989 -0
vn -1 -0 -0
vn 0.0466 -0.9989 -0
vn -0.9972 -0 0.0748
vn 1 -0 -0
vn 0.9972 -0 0.0748
vn 0.6402 -0 -0.7682
vn -0.6172 -0.1543 -0.7715
vn 0.6172 0.1543 -0.7715
vn -0 0.7071 -0.7071
vn -0.6402 -0 -0.7682
vn -0.8602 -0.2151 0.4624
vn 0.6149 -0.7686 0.1768
vt 0.876248 0.778222
vt 0.803544 0.61096
vt 0.876248 0.464372
vt 0.570671 0.771811
vt 0.507622 0.618895
vt 0.570671 0.618895
vt 0.531076 0.926333
vt 0.487825 0.804001
vt 0.531076 0.773418
vt 0.802622 0.155327
vt 0.802622 0.371582
vt 0.694494 0.263454
vt 0.218666 0.618895
vt 0.218666 0.83515
vt 0.110539 0.727023
vt 0.921607 0.464372
vt 0.921607 0.794913
vt 0.877856 0.781119
vt 0.281499 0.620385
vt 0.312046 0.618895
vt 0.312046 0.932744
vt 0.931932 0.371582
vt 0.868884 0.371209
vt 0.931932 0.057733
vt 0.279892 0.618895
vt 0.279892 0.801275
vt 0.220274 0.639409
vt 0.61789 0.464372
vt 0.61789 0.617288
vt 0.463264 0.54083
vt 0.67879 0.891337
vt 0.67879 0.954385
vt 0.649948 0.929908
vt 0.463264 0.398109
vt 0.616179 0.33506
vt 0.616179 0.398109
vt 0.461657 0.617288
vt 0.232034 0.464372
vt 0.461657 0.464372
vt 0.64834 0.891337
vt 0.64834 0.954385
vt 0.619498 0.929908
vt 0.441359 0.926333
vt 0.37831 0.773418
vt 0.441359 0.773418
vt 0.506015 0.771811
vt 0.442966 0.618895
vt 0.506015 0.618895
vt 0.953684 0.464372
vt 0.953684 0.694605
vt 0.923215 0.467013
vt 0.862361 0.000804007
vt 0.862361 0.031387
vt 0.548885 0.016095
vt 0.572278 0.776091
vt 0.6177 0.618895
vt 0.6177 0.782522
vt 0.804229 0.058105
vt 0.867277 0.057733
vt 0.867277 0.371582
vt 0.687133 0.353549
vt 0.687254 0.33974
vt 0.687254 0.367357
vt 0.778257 0.095768
vt 0.548885 0.075889
vt 0.778257 0.065185
vt 0.692887 0.308242
vt 0.463264 0.155327
vt 0.692887 0.155327
vt 0.547277 0.153719
vt 0.317654 0.000804007
vt 0.547277 0.000804007
vt 0.637328 0.45911
vt 0.790243 0.449935
vt 0.790243 0.45911
vt 0.230426 0.617288
vt 0.000804 0.464372
vt 0.230426 0.464372
vt 0.714623 0.682235
vt 0.714623 0.912467
vt 0.684154 0.684876
vt 0.778257 0.063578
vt 0.548885 0.043699
vt 0.778257 0.032994
vt 0.572278 0.937474
vt 0.599803 0.784129
vt 0.599803 0.937474
vt 0.218017 0.989673
vt 0.208842 0.836758
vt 0.218017 0.836758
vt 0.685405 0.353549
vt 0.685526 0.33974
vt 0.685526 0.367357
vt 0.685405 0.324324
vt 0.685526 0.310515
vt 0.685526 0.338132
vt 0.950304 0.696212
vt 0.950304 0.851585
vt 0.923215 0.701088
vt 0.721003 0.914075
vt 0.721003 0.949904
vt 0.703382 0.93522
vt 0.988414 0.213966
vt 0.988414 0.368592
vt 0.96573 0.36519
vt 0.988414 0.057733
vt 0.988414 0.212359
vt 0.96573 0.208956
vt 0.121602 0.989673
vt 0.098665 0.836758
vt 0.121602 0.836758
vt 0.915711 0.796521
vt 0.915711 0.949711
vt 0.906553 0.949161
vt 0.637328 0.448328
vt 0.790243 0.439153
vt 0.790243 0.448328
vt 0.687133 0.324324
vt 0.687254 0.310515
vt 0.687254 0.338132
vt 0.247799 0.802883
vt 0.220274 0.955798
vt 0.220274 0.802883
vt 0.770702 0.375171
vt 0.770702 0.398109
vt 0.617787 0.38664
vt 0.701775 0.914075
vt 0.701775 0.949904
vt 0.684154 0.93522
vt 0.023487 0.836758
vt 0.023487 0.991384
vt 0.000804 0.987981
vt 0.904945 0.951894
vt 0.877856 0.801397
vt 0.904945 0.796521
vt 0.047968 0.990103
vt 0.025095 0.988387
vt 0.047968 0.836758
vt 0.616179 0.310515
vt 0.616179 0.333453
vt 0.463264 0.321984
vt 0.702229 0.124901
vt 0.548885 0.097376
vt 0.702229 0.097376
vt 0.559775 0.929214
vt 0.532683 0.778281
vt 0.559775 0.773418
vt 0.84403 0.933174
vt 0.871555 0.779829
vt 0.871555 0.933174
vt 0.7018 0.126508
vt 0.7018 0.149445
vt 0.548885 0.137977
vt 0.785024 0.779829
vt 0.785024 0.935624
vt 0.757932 0.784692
vt 0.232034 0.30985
vt 0.461657 0.30985
vt 0.461657 0.462765
vt 0.996092 0.926441
vt 0.986951 0.697004
vt 0.996092 0.696212
vt 0.108931 0.83515
vt 0.000804 0.727023
vt 0.108931 0.618895
vt 0.891189 0.000804007
vt 0.891189 0.054477
vt 0.863968 0.014745
vt 0.854167 0.426202
vt 0.911382 0.399716
vt 0.911382 0.452688
vt 0.619498 0.863244
vt 0.676713 0.836758
vt 0.676713 0.889729
vt 0.486217 0.926333
vt 0.442966 0.804001
vt 0.486217 0.773418
vt 0.892797 0.045082
vt 0.923132 0.000804007
vt 0.923132 0.048966
vt 0.779864 0.036011
vt 0.797965 0.032994
vt 0.797965 0.144612
vt 0.985344 0.926441
vt 0.976203 0.697004
vt 0.985344 0.696212
vt 0.725371 0.912464
vt 0.71623 0.683027
vt 0.725371 0.682235
vt 0.000804 0.30985
vt 0.230426 0.30985
vt 0.230426 0.462765
vt 0.988723 0.694601
vt 0.979582 0.465165
vt 0.988723 0.464372
vt 0.232034 0.155327
vt 0.461657 0.155327
vt 0.461657 0.308242
vt 0.313654 0.618895
vt 0.376702 0.618895
vt 0.376702 0.771811
vt 0.727625 0.680627
vt 0.619498 0.5725
vt 0.727625 0.464372
vt 0.635721 0.399716
vt 0.635721 0.462765
vt 0.463264 0.459056
vt 0.313654 0.773418
vt 0.376702 0.773418
vt 0.376702 0.926333
vt 0.801937 0.464372
vt 0.801937 0.778222
vt 0.729233 0.631634
vt 0.37831 0.618895
vt 0.441359 0.618895
vt 0.441359 0.771811
vt 0.000804 0.155327
vt 0.230426 0.155327
vt 0.230426 0.308242
vt 0.316047 0.000804007
vt 0.316047 0.153719
vt 0.000804 0.100199
vt 0.974595 0.850838
vt 0.951912 0.847436
vt 0.974595 0.696212
vt 0.619498 0.682235
vt 0.682546 0.682235
vt 0.682546 0.83515
vt 0.813723 0.935624
vt 0.786632 0.784692
vt 0.813723 0.779829
vt 0.07412 0.836758
vt 0.097058 0.836758
vt 0.097058 0.989673
vt 0.95116 0.356283
vt 0.93354 0.341599
vt 0.95116 0.320454
vt 0.964123 0.318846
vt 0.93354 0.275595
vt 0.964123 0.189093
vt 0.952057 0.916241
vt 0.923215 0.87767
vt 0.952057 0.853193
vt 0.941072 0.054477
vt 0.924739 0.00916803
vt 0.941072 0.000804007
vt 0.703837 0.123862
vt 0.761052 0.097376
vt 0.761052 0.150347
vt 0.964123 0.187486
vt 0.93354 0.144235
vt 0.964123 0.057733
vt 0.941832 0.462765
vt 0.91299 0.424194
vt 0.941832 0.399716
vt 0.683798 0.364188
vt 0.667465 0.31888
vt 0.683798 0.310515
vt 0.665858 0.373564
vt 0.617787 0.332768
vt 0.665858 0.310515
vt 0.187527 0.944147
vt 0.156172 0.922983
vt 0.187527 0.836758
vt 0.74414 0.399716
vt 0.74414 0.437545
vt 0.637328 0.410842
vt 0.189134 0.839774
vt 0.207235 0.836758
vt 0.207235 0.948375
vt 0.154565 0.944147
vt 0.12321 0.922983
vt 0.154565 0.836758
vt 0.852559 0.399716
vt 0.852559 0.437545
vt 0.745748 0.410842
vt 0.799834 0.375171
vt 0.799834 0.398109
vt 0.77231 0.398109
vt 0.276931 0.802883
vt 0.276931 0.955798
vt 0.249406 0.955798
vt 0.842423 0.935624
vt 0.815331 0.784692
vt 0.842423 0.779829
vt 0.049575 0.836758
vt 0.072513 0.836758
vt 0.072513 0.989673
vt 0.977975 0.618998
vt 0.955291 0.615596
vt 0.977975 0.464372
vt 0.570541 0.926608
vt 0.561382 0.926059
vt 0.570541 0.773418
vt 0.610569 0.93732
vt 0.601411 0.93677
vt 0.610569 0.784129
vt 0.990021 0.057733
vt 0.999196 0.057733
vt 0.999196 0.210648
vt 0.990021 0.212255
vt 0.999196 0.212255
vt 0.999196 0.365171
vt 0.756325 0.935625
vt 0.729233 0.784692
vt 0.756325 0.779829
vt 0.689183 0.368965
vt 0.688861 0.350556
vt 0.689183 0.350553
vt 0.689183 0.348946
vt 0.688861 0.330537
vt 0.689183 0.330534
vt 0.689183 0.328927
vt 0.688861 0.310518
vt 0.689183 0.310515
vt 0.691112 0.328927
vt 0.69079 0.310518
vt 0.691112 0.310515
usemtl material_1
f 1/1/1 2/2/1 3/3/1
f 4/4/2 5/5/2 6/6/2
f 7/7/3 8/8/3 9/9/3
f 10/10/4 9/11/4 11/12/4
f 12/13/5 4/14/5 6/15/5
f 12/16/6 3/17/6 13/18/6
f 14/19/7 15/20/7 13/21/7
f 15/22/8 12/23/8 13/24/8
f 14/25/9 2/26/9 11/27/9
f 10/28/10 11/29/10 2/30/10
f 16/31/11 17/32/11 18/33/11
f 10/34/12 19/35/12 7/36/12
f 15/37/13 20/38/13 21/39/13
f 22/40/14 8/41/14 23/42/14
f 12/43/15 21/44/15 24/45/15
f 9/46/16 14/47/16 11/48/16
f 5/49/17 25/50/17 1/51/17
f 5/52/18 1/53/18 3/54/18
f 3/55/19 2/56/19 13/57/19
f 6/58/20 5/59/20 3/60/20
f 26/61/17 27/62/17 28/63/17
f 19/64/21 26/65/21 16/66/21
f 1/67/22 29/68/22 19/69/22
f 16/70/23 30/71/23 5/72/23
f 31/73/24 32/74/24 20/75/24
f 22/76/25 33/77/25 14/78/25
f 14/79/17 31/80/17 15/81/17
f 21/82/21 34/83/21 22/84/21
f 35/85/26 36/86/26 37/87/26
f 34/88/24 35/89/24 33/90/24
f 31/91/17 35/92/17 37/93/17
f 34/94/17 32/95/17 38/96/17
f 39/97/27 40/98/27 41/99/27
f 32/100/21 41/101/21 38/102/21
f 37/103/5 39/104/5 32/105/5
f 38/106/4 40/107/4 35/108/4
f 28/109/5 42/110/5 43/111/5
f 25/112/27 27/113/27 29/114/27
f 26/115/27 43/116/27 30/117/27
f 25/118/17 43/119/17 44/120/17
f 42/121/24 45/122/24 46/123/24
f 43/124/5 42/125/5 47/126/5
f 27/127/21 48/128/21 28/129/21
f 44/130/4 45/131/4 27/132/4
f 42/133/24 48/134/24 45/135/24
f 35/136/4 40/137/4 49/138/4
f 50/139/5 37/140/5 36/141/5
f 50/142/28 49/143/28 40/144/28
f 46/145/26 51/146/26 47/147/26
f 43/148/28 51/149/28 44/150/28
f 46/151/4 44/152/4 51/153/4
f 46/154/26 47/155/26 42/156/26
f 22/157/25 34/158/25 33/159/25
f 14/160/17 33/161/17 31/162/17
f 12/163/5 24/164/5 4/165/5
f 22/166/29 52/167/29 21/168/29
f 19/169/30 53/170/30 7/171/30
f 21/172/31 54/173/31 24/174/31
f 24/175/32 17/176/32 4/177/32
f 16/178/33 55/179/33 19/180/33
f 55/181/21 18/182/21 23/183/21
f 21/184/21 20/185/21 34/186/21
f 19/187/21 29/188/21 26/189/21
f 16/190/23 26/191/23 30/192/23
f 5/193/17 30/194/17 25/195/17
f 1/196/22 25/197/22 29/198/22
f 10/199/12 1/200/12 19/201/12
f 10/202/4 7/203/4 9/204/4
f 1/205/34 10/206/34 2/207/34
f 9/208/16 22/209/16 14/210/16
f 14/211/35 13/212/35 2/213/35
f 12/214/15 15/215/15 21/216/15
f 15/217/13 31/218/13 20/219/13
f 12/220/6 6/221/6 3/222/6
f 28/223/5 48/224/5 42/225/5
f 4/226/2 16/227/2 5/228/2
f 43/229/28 47/230/28 51/231/28
f 44/232/4 46/233/4 45/234/4
f 27/235/21 45/236/21 48/237/21
f 24/238/32 54/239/32 17/240/32
f 21/241/31 52/242/31 54/243/31
f 22/244/29 23/245/29 52/246/29
f 22/247/14 9/248/14 8/249/14
f 7/250/3 53/251/3 8/252/3
f 19/253/30 55/254/30 53/255/30
f 16/256/33 18/257/33 55/258/33
f 16/259/11 4/260/11 17/261/11
f 18/262/21 17/263/21 54/264/21
f 54/265/21 52/266/21 18/267/21
f 52/268/21 23/269/21 18/270/21
f 23/271/21 8/272/21 53/273/21
f 53/274/21 55/275/21 23/276/21
f 32/277/21 39/278/21 41/279/21
f 39/280/27 50/281/27 40/282/27
f 50/283/28 36/284/28 49/285/28
f 37/286/5 50/287/5 39/288/5
f 38/289/4 41/290/4 40/291/4
f 25/292/27 44/293/27 27/294/27
f 26/295/27 28/296/27 43/297/27
f 31/298/24 37/299/24 32/300/24
f 34/301/24 38/302/24 35/303/24
f 35/304/26 49/305/26 36/306/26
f 26/307/27 29/308/27 27/309/27
f 31/310/24 33/311/24 35/312/24
f 34/313/24 20/314/24 32/315/24
f 25/316/27 30/317/27 43/318/27
s off
